<?xml version="1.0"?>
<svg xmlns="http://www.w3.org/2000/svg" id="Layer_1" data-name="Layer 1" viewBox="0 0 202.36 20.69">
<title>Name</title>
<g id="K">
    <circle cx="0.79" cy="19.69" r="0.79" fill="#86171a"/>
    <circle cx="4.27" cy="19.69" r="0.79" fill="#86171a"/>
    <circle cx="4.27" cy="1.1" r="0.79" fill="#86171a"/>
    <circle cx="9.86" cy="8.82" r="0.79" fill="#86171a"/>
    <circle cx="5.85" cy="8.82" r="0.79" fill="#86171a"/>
    <circle cx="5.85" cy="11.97" r="0.79" fill="#86171a"/>
    <circle cx="10.54" cy="0.94" r="0.79" fill="#86171a"/>
    <circle cx="10.54" cy="19.69" r="0.79" fill="#86171a"/>
    <circle cx="14.67" cy="0.94" r="0.79" fill="#86171a"/>
    <circle cx="14.67" cy="19.69" r="0.79" fill="#86171a"/>
    <circle cx="9.86" cy="11.97" r="0.79" fill="#86171a"/>
    <circle cx="0.79" cy="1.1" r="0.79" fill="#86171a"/>
    <line x1="0.79" y1="1.1" x2="4.25" y2="19.69" fill="none" stroke="#86171a" stroke-miterlimit="10" stroke-width="0.5"/>
    <line x1="4.22" y1="1.1" x2="0.79" y2="19.69" fill="none" stroke="#86171a" stroke-miterlimit="10" stroke-width="0.5"/>
    <line x1="0.79" y1="0.94" x2="0.79" y2="19.69" fill="none" stroke="#86171a" stroke-miterlimit="10" stroke-width="0.5"/>
    <line x1="4.22" y1="0.94" x2="4.25" y2="19.69" fill="none" stroke="#86171a" stroke-miterlimit="10" stroke-width="0.5"/>
    <line x1="0.79" y1="19.69" x2="4.25" y2="19.69" fill="none" stroke="#86171a" stroke-miterlimit="10" stroke-width="0.5"/>
    <line x1="0.79" y1="0.94" x2="4.22" y2="0.94" fill="none" stroke="#86171a" stroke-miterlimit="10" stroke-width="0.5"/>
    <line x1="4.22" y1="8.78" x2="9.86" y2="8.78" fill="none" stroke="#86171a" stroke-miterlimit="10" stroke-width="0.5"/>
    <line x1="4.22" y1="11.97" x2="9.86" y2="11.97" fill="none" stroke="#86171a" stroke-miterlimit="10" stroke-width="0.5"/>
    <line x1="9.86" y1="8.82" x2="14.67" y2="0.94" fill="none" stroke="#86171a" stroke-miterlimit="10" stroke-width="0.5"/>
    <line x1="5.73" y1="8.78" x2="10.5" y2="0.94" fill="none" stroke="#86171a" stroke-miterlimit="10" stroke-width="0.5"/>
    <line x1="14.67" y1="0.94" x2="10.5" y2="0.94" fill="none" stroke="#86171a" stroke-miterlimit="10" stroke-width="0.5"/>
    <line x1="5.73" y1="11.96" x2="10.5" y2="19.69" fill="none" stroke="#86171a" stroke-miterlimit="10" stroke-width="0.5"/>
    <line x1="9.86" y1="11.97" x2="14.67" y2="19.69" fill="none" stroke="#86171a" stroke-miterlimit="10" stroke-width="0.5"/>
    <line x1="10.5" y1="19.69" x2="14.67" y2="19.69" fill="none" stroke="#86171a" stroke-miterlimit="10" stroke-width="0.5"/>
    <line x1="9.86" y1="11.97" x2="10.5" y2="19.69" fill="none" stroke="#86171a" stroke-miterlimit="10" stroke-width="0.5"/>
    <line x1="5.96" y1="11.97" x2="14.67" y2="19.69" fill="none" stroke="#86171a" stroke-miterlimit="10" stroke-width="0.5"/>
    <line x1="5.73" y1="8.78" x2="14.67" y2="0.94" fill="none" stroke="#86171a" stroke-miterlimit="10" stroke-width="0.5"/>
    <line x1="10.5" y1="0.94" x2="9.86" y2="8.82" fill="none" stroke="#86171a" stroke-miterlimit="10" stroke-width="0.5"/>
    <line x1="9.86" y1="11.97" x2="9.86" y2="8.78" fill="none" stroke="#86171a" stroke-miterlimit="10" stroke-width="0.5"/>
    <line x1="5.85" y1="11.97" x2="9.87" y2="8.82" fill="none" stroke="#86171a" stroke-miterlimit="10" stroke-width="0.5"/>
    <line x1="9.86" y1="11.97" x2="5.85" y2="8.82" fill="none" stroke="#86171a" stroke-miterlimit="10" stroke-width="0.5"/>
</g>
<g id="K-2" data-name="K">
    <circle cx="181.91" cy="19.72" r="0.79" fill="#86171a"/>
    <circle cx="185.39" cy="19.72" r="0.79" fill="#86171a"/>
    <circle cx="185.39" cy="1.12" r="0.79" fill="#86171a"/>
    <circle cx="190.98" cy="8.84" r="0.79" fill="#86171a"/>
    <circle cx="186.97" cy="8.84" r="0.79" fill="#86171a"/>
    <circle cx="186.97" cy="12" r="0.79" fill="#86171a"/>
    <circle cx="191.67" cy="0.97" r="0.79" fill="#86171a"/>
    <circle cx="191.67" cy="19.72" r="0.79" fill="#86171a"/>
    <circle cx="195.79" cy="0.97" r="0.79" fill="#86171a"/>
    <circle cx="195.79" cy="19.72" r="0.79" fill="#86171a"/>
    <circle cx="190.98" cy="12" r="0.79" fill="#86171a"/>
    <circle cx="181.91" cy="1.12" r="0.79" fill="#86171a"/>
    <line x1="181.91" y1="1.12" x2="185.37" y2="19.72" fill="none" stroke="#86171a" stroke-miterlimit="10" stroke-width="0.5"/>
    <line x1="185.34" y1="1.12" x2="181.91" y2="19.72" fill="none" stroke="#86171a" stroke-miterlimit="10" stroke-width="0.5"/>
    <line x1="181.91" y1="0.97" x2="181.91" y2="19.72" fill="none" stroke="#86171a" stroke-miterlimit="10" stroke-width="0.5"/>
    <line x1="185.34" y1="0.97" x2="185.37" y2="19.72" fill="none" stroke="#86171a" stroke-miterlimit="10" stroke-width="0.5"/>
    <line x1="181.91" y1="19.72" x2="185.37" y2="19.72" fill="none" stroke="#86171a" stroke-miterlimit="10" stroke-width="0.5"/>
    <line x1="181.91" y1="0.97" x2="185.34" y2="0.97" fill="none" stroke="#86171a" stroke-miterlimit="10" stroke-width="0.5"/>
    <line x1="185.34" y1="8.81" x2="190.98" y2="8.81" fill="none" stroke="#86171a" stroke-miterlimit="10" stroke-width="0.5"/>
    <line x1="185.34" y1="12" x2="190.98" y2="12" fill="none" stroke="#86171a" stroke-miterlimit="10" stroke-width="0.5"/>
    <line x1="190.98" y1="8.84" x2="195.79" y2="0.97" fill="none" stroke="#86171a" stroke-miterlimit="10" stroke-width="0.5"/>
    <line x1="186.85" y1="8.81" x2="191.62" y2="0.97" fill="none" stroke="#86171a" stroke-miterlimit="10" stroke-width="0.5"/>
    <line x1="195.79" y1="0.97" x2="191.62" y2="0.97" fill="none" stroke="#86171a" stroke-miterlimit="10" stroke-width="0.5"/>
    <line x1="186.85" y1="11.98" x2="191.62" y2="19.72" fill="none" stroke="#86171a" stroke-miterlimit="10" stroke-width="0.5"/>
    <line x1="190.98" y1="12" x2="195.79" y2="19.72" fill="none" stroke="#86171a" stroke-miterlimit="10" stroke-width="0.5"/>
    <line x1="191.62" y1="19.72" x2="195.79" y2="19.72" fill="none" stroke="#86171a" stroke-miterlimit="10" stroke-width="0.5"/>
    <line x1="190.98" y1="12" x2="191.62" y2="19.72" fill="none" stroke="#86171a" stroke-miterlimit="10" stroke-width="0.5"/>
    <line x1="187.08" y1="12" x2="195.79" y2="19.72" fill="none" stroke="#86171a" stroke-miterlimit="10" stroke-width="0.5"/>
    <line x1="186.85" y1="8.81" x2="195.79" y2="0.97" fill="none" stroke="#86171a" stroke-miterlimit="10" stroke-width="0.5"/>
    <line x1="191.62" y1="0.97" x2="190.98" y2="8.84" fill="none" stroke="#86171a" stroke-miterlimit="10" stroke-width="0.5"/>
    <line x1="190.98" y1="12" x2="190.98" y2="8.81" fill="none" stroke="#86171a" stroke-miterlimit="10" stroke-width="0.5"/>
    <line x1="186.97" y1="12" x2="190.99" y2="8.84" fill="none" stroke="#86171a" stroke-miterlimit="10" stroke-width="0.5"/>
    <line x1="190.98" y1="12" x2="186.97" y2="8.84" fill="none" stroke="#86171a" stroke-miterlimit="10" stroke-width="0.5"/>
</g>
<g id="E">
    <circle cx="27.11" cy="11.97" r="0.79" fill="#86171a"/>
    <circle cx="27.11" cy="8.95" r="0.79" fill="#86171a"/>
    <circle cx="19.7" cy="8.6" r="0.79" fill="#86171a"/>
    <circle cx="19.7" cy="12.14" r="0.79" fill="#86171a"/>
    <circle cx="19.7" cy="16.08" r="0.79" fill="#86171a"/>
    <circle cx="28.35" cy="16.47" r="0.79" fill="#86171a"/>
    <circle cx="28.35" cy="19.31" r="0.79" fill="#86171a"/>
    <circle cx="19.45" cy="19.77" r="0.79" fill="#86171a"/>
    <circle cx="16.03" cy="16.87" r="0.79" fill="#86171a"/>
    <circle cx="16.03" cy="4.07" r="0.79" fill="#86171a"/>
    <circle cx="19.84" cy="4.61" r="0.79" fill="#86171a"/>
    <circle cx="28.26" cy="4.26" r="0.79" fill="#86171a"/>
    <circle cx="28.26" cy="1.43" r="0.79" fill="#86171a"/>
    <circle cx="19.05" cy="1.07" r="0.79" fill="#86171a"/>
    <line x1="19.7" y1="16.08" x2="28.35" y2="16.39" fill="none" stroke="#86171a" stroke-miterlimit="10" stroke-width="0.5"/>
    <line x1="19.45" y1="19.77" x2="28.49" y2="19.31" fill="none" stroke="#86171a" stroke-miterlimit="10" stroke-width="0.5"/>
    <line x1="16.03" y1="16.87" x2="19.7" y2="16.08" fill="none" stroke="#86171a" stroke-miterlimit="10" stroke-width="0.5"/>
    <line x1="19.45" y1="19.77" x2="19.7" y2="16.08" fill="none" stroke="#86171a" stroke-miterlimit="10" stroke-width="0.5"/>
    <line x1="16.03" y1="16.87" x2="19.45" y2="19.77" fill="none" stroke="#86171a" stroke-miterlimit="10" stroke-width="0.5"/>
    <line x1="28.35" y1="16.39" x2="19.45" y2="19.77" fill="none" stroke="#86171a" stroke-miterlimit="10" stroke-width="0.5"/>
    <line x1="19.7" y1="16.08" x2="28.49" y2="19.31" fill="none" stroke="#86171a" stroke-miterlimit="10" stroke-width="0.5"/>
    <line x1="28.35" y1="16.39" x2="28.35" y2="19.33" fill="none" stroke="#86171a" stroke-miterlimit="10" stroke-width="0.5"/>
    <line x1="15.89" y1="16.87" x2="19.61" y2="12.14" fill="none" stroke="#86171a" stroke-miterlimit="10" stroke-width="0.5"/>
    <line x1="16.03" y1="4.07" x2="15.89" y2="16.87" fill="none" stroke="#86171a" stroke-miterlimit="10" stroke-width="0.5"/>
    <line x1="19.84" y1="4.61" x2="16.03" y2="4.07" fill="none" stroke="#86171a" stroke-miterlimit="10" stroke-width="0.5"/>
    <line x1="19.61" y1="8.68" x2="16.03" y2="4.07" fill="none" stroke="#86171a" stroke-miterlimit="10" stroke-width="0.5"/>
    <line x1="19.84" y1="4.61" x2="15.89" y2="16.87" fill="none" stroke="#86171a" stroke-miterlimit="10" stroke-width="0.5"/>
    <line x1="16.03" y1="4.07" x2="19.7" y2="12.37" fill="none" stroke="#86171a" stroke-miterlimit="10" stroke-width="0.5"/>
    <line x1="19.61" y1="8.68" x2="19.61" y2="12.14" fill="none" stroke="#86171a" stroke-miterlimit="10" stroke-width="0.5"/>
    <line x1="27.2" y1="8.93" x2="19.61" y2="12.14" fill="none" stroke="#86171a" stroke-miterlimit="10" stroke-width="0.5"/>
    <line x1="19.61" y1="8.68" x2="27.2" y2="11.91" fill="none" stroke="#86171a" stroke-miterlimit="10" stroke-width="0.5"/>
    <line x1="27.2" y1="8.93" x2="27.2" y2="11.91" fill="none" stroke="#86171a" stroke-miterlimit="10" stroke-width="0.5"/>
    <line x1="19.61" y1="12.14" x2="27.2" y2="11.91" fill="none" stroke="#86171a" stroke-miterlimit="10" stroke-width="0.5"/>
    <line x1="19.61" y1="8.68" x2="27.2" y2="8.93" fill="none" stroke="#86171a" stroke-miterlimit="10" stroke-width="0.5"/>
    <line x1="19.84" y1="4.61" x2="19.61" y2="8.68" fill="none" stroke="#86171a" stroke-miterlimit="10" stroke-width="0.5"/>
    <line x1="16.03" y1="4.07" x2="19.05" y2="1.07" fill="none" stroke="#86171a" stroke-miterlimit="10" stroke-width="0.5"/>
    <line x1="19.84" y1="4.61" x2="19.05" y2="1.07" fill="none" stroke="#86171a" stroke-miterlimit="10" stroke-width="0.5"/>
    <line x1="28.35" y1="1.35" x2="28.35" y2="4.32" fill="none" stroke="#86171a" stroke-miterlimit="10" stroke-width="0.5"/>
    <line x1="19.05" y1="1.07" x2="28.35" y2="1.35" fill="none" stroke="#86171a" stroke-miterlimit="10" stroke-width="0.5"/>
    <line x1="28.35" y1="4.32" x2="19.84" y2="4.61" fill="none" stroke="#86171a" stroke-miterlimit="10" stroke-width="0.5"/>
    <line x1="19.05" y1="1.07" x2="28.35" y2="4.32" fill="none" stroke="#86171a" stroke-miterlimit="10" stroke-width="0.5"/>
    <line x1="28.35" y1="1.35" x2="19.84" y2="4.61" fill="none" stroke="#86171a" stroke-miterlimit="10" stroke-width="0.5"/>
    <line x1="19.61" y1="12.14" x2="19.7" y2="16.08" fill="none" stroke="#86171a" stroke-miterlimit="10" stroke-width="0.5"/>
</g>
<g id="V">
    <circle cx="29.94" cy="0.94" r="0.79" fill="#86171a"/>
    <circle cx="33.72" cy="0.94" r="0.79" fill="#86171a"/>
    <circle cx="42.36" cy="0.94" r="0.79" fill="#86171a"/>
    <circle cx="46.12" cy="0.94" r="0.79" fill="#86171a"/>
    <circle cx="37.87" cy="14.5" r="0.79" fill="#86171a"/>
    <circle cx="35.9" cy="19.69" r="0.79" fill="#86171a"/>
    <circle cx="39.9" cy="19.69" r="0.79" fill="#86171a"/>
    <line x1="29.94" y1="0.94" x2="33.75" y2="0.94" fill="none" stroke="#86171a" stroke-miterlimit="10" stroke-width="0.5"/>
    <line x1="33.75" y1="0.94" x2="37.87" y2="14.5" fill="none" stroke="#86171a" stroke-miterlimit="10" stroke-width="0.5"/>
    <line x1="42.33" y1="0.94" x2="37.87" y2="14.5" fill="none" stroke="#86171a" stroke-miterlimit="10" stroke-width="0.5"/>
    <line x1="46.15" y1="0.94" x2="42.33" y2="0.94" fill="none" stroke="#86171a" stroke-miterlimit="10" stroke-width="0.5"/>
    <line x1="39.98" y1="19.69" x2="46.15" y2="0.94" fill="none" stroke="#86171a" stroke-miterlimit="10" stroke-width="0.5"/>
    <line x1="42.33" y1="0.94" x2="39.98" y2="19.69" fill="none" stroke="#86171a" stroke-miterlimit="10" stroke-width="0.5"/>
    <line x1="46.15" y1="0.94" x2="37.87" y2="14.5" fill="none" stroke="#86171a" stroke-miterlimit="10" stroke-width="0.5"/>
    <line x1="35.83" y1="19.69" x2="37.87" y2="14.5" fill="none" stroke="#86171a" stroke-miterlimit="10" stroke-width="0.5"/>
    <line x1="39.98" y1="19.69" x2="35.83" y2="19.69" fill="none" stroke="#86171a" stroke-miterlimit="10" stroke-width="0.5"/>
    <line x1="37.87" y1="14.5" x2="39.98" y2="19.69" fill="none" stroke="#86171a" stroke-miterlimit="10" stroke-width="0.5"/>
    <line x1="33.75" y1="0.94" x2="35.83" y2="19.69" fill="none" stroke="#86171a" stroke-miterlimit="10" stroke-width="0.5"/>
    <line x1="29.94" y1="0.94" x2="37.87" y2="14.5" fill="none" stroke="#86171a" stroke-miterlimit="10" stroke-width="0.5"/>
    <line x1="35.83" y1="19.69" x2="29.94" y2="0.94" fill="none" stroke="#86171a" stroke-miterlimit="10" stroke-width="0.5"/>
</g>
<g id="I">
    <circle cx="48.17" cy="0.94" r="0.79" fill="#86171a"/>
    <circle cx="51.76" cy="0.94" r="0.79" fill="#86171a"/>
    <circle cx="51.76" cy="19.69" r="0.79" fill="#86171a"/>
    <circle cx="48.17" cy="19.69" r="0.79" fill="#86171a"/>
    <line x1="48.17" y1="0.94" x2="51.76" y2="0.94" fill="none" stroke="#86171a" stroke-miterlimit="10" stroke-width="0.5"/>
    <line x1="48.17" y1="19.69" x2="48.17" y2="0.94" fill="none" stroke="#86171a" stroke-miterlimit="10" stroke-width="0.5"/>
    <line x1="51.76" y1="19.69" x2="51.76" y2="0.94" fill="none" stroke="#86171a" stroke-miterlimit="10" stroke-width="0.5"/>
    <line x1="48.17" y1="19.69" x2="51.76" y2="19.69" fill="none" stroke="#86171a" stroke-miterlimit="10" stroke-width="0.5"/>
    <line x1="48.17" y1="0.94" x2="51.76" y2="19.69" fill="none" stroke="#86171a" stroke-miterlimit="10" stroke-width="0.5"/>
    <line x1="51.76" y1="0.77" x2="48.17" y2="19.69" fill="none" stroke="#86171a" stroke-miterlimit="10" stroke-width="0.5"/>
</g>
<g id="N">
    <circle cx="54.45" cy="0.94" r="0.79" fill="#86171a"/>
    <circle cx="57.92" cy="0.94" r="0.79" fill="#86171a"/>
    <circle cx="58.11" cy="7.97" r="0.79" fill="#86171a"/>
    <circle cx="58.11" cy="19.69" r="0.79" fill="#86171a"/>
    <circle cx="65.49" cy="19.69" r="0.79" fill="#86171a"/>
    <circle cx="69.1" cy="19.69" r="0.79" fill="#86171a"/>
    <circle cx="69.1" cy="0.94" r="0.79" fill="#86171a"/>
    <circle cx="65.63" cy="0.94" r="0.79" fill="#86171a"/>
    <circle cx="65.49" cy="12.79" r="0.79" fill="#86171a"/>
    <circle cx="54.45" cy="19.69" r="0.79" fill="#86171a"/>
    <line x1="54.45" y1="0.94" x2="57.92" y2="0.94" fill="none" stroke="#86171a" stroke-miterlimit="10" stroke-width="0.5"/>
    <line x1="54.45" y1="19.69" x2="58.06" y2="19.69" fill="none" stroke="#86171a" stroke-miterlimit="10" stroke-width="0.5"/>
    <line x1="58.11" y1="7.97" x2="54.45" y2="19.69" fill="none" stroke="#86171a" stroke-miterlimit="10" stroke-width="0.5"/>
    <line x1="54.45" y1="0.94" x2="58.06" y2="19.69" fill="none" stroke="#86171a" stroke-miterlimit="10" stroke-width="0.5"/>
    <line x1="57.92" y1="0.74" x2="54.45" y2="19.69" fill="none" stroke="#86171a" stroke-miterlimit="10" stroke-width="0.5"/>
    <line x1="54.45" y1="0.94" x2="54.45" y2="19.69" fill="none" stroke="#86171a" stroke-miterlimit="10" stroke-width="0.5"/>
    <line x1="57.92" y1="0.74" x2="58.11" y2="7.97" fill="none" stroke="#86171a" stroke-miterlimit="10" stroke-width="0.5"/>
    <line x1="58.06" y1="19.69" x2="58.11" y2="7.97" fill="none" stroke="#86171a" stroke-miterlimit="10" stroke-width="0.5"/>
    <line x1="57.92" y1="0.74" x2="65.49" y2="12.79" fill="none" stroke="#86171a" stroke-miterlimit="10" stroke-width="0.5"/>
    <line x1="58.22" y1="7.97" x2="65.51" y2="19.69" fill="none" stroke="#86171a" stroke-miterlimit="10" stroke-width="0.5"/>
    <line x1="69.1" y1="19.69" x2="69.1" y2="0.94" fill="none" stroke="#86171a" stroke-miterlimit="10" stroke-width="0.5"/>
    <line x1="65.51" y1="0.94" x2="69.1" y2="0.94" fill="none" stroke="#86171a" stroke-miterlimit="10" stroke-width="0.5"/>
    <line x1="65.49" y1="12.79" x2="65.51" y2="0.94" fill="none" stroke="#86171a" stroke-miterlimit="10" stroke-width="0.5"/>
    <line x1="58.08" y1="0.94" x2="65.51" y2="19.69" fill="none" stroke="#86171a" stroke-miterlimit="10" stroke-width="0.5"/>
    <line x1="58.11" y1="7.97" x2="65.49" y2="12.79" fill="none" stroke="#86171a" stroke-miterlimit="10" stroke-width="0.5"/>
    <line x1="69.1" y1="19.69" x2="65.63" y2="12.79" fill="none" stroke="#86171a" stroke-miterlimit="10" stroke-width="0.5"/>
    <line x1="65.51" y1="19.69" x2="69.1" y2="0.94" fill="none" stroke="#86171a" stroke-miterlimit="10" stroke-width="0.5"/>
    <line x1="65.51" y1="0.94" x2="69.1" y2="19.69" fill="none" stroke="#86171a" stroke-miterlimit="10" stroke-width="0.5"/>
    <line x1="65.51" y1="19.69" x2="69.1" y2="19.69" fill="none" stroke="#86171a" stroke-miterlimit="10" stroke-width="0.5"/>
    <line x1="69.1" y1="0.94" x2="65.49" y2="12.79" fill="none" stroke="#86171a" stroke-miterlimit="10" stroke-width="0.5"/>
</g>
<g id="G">
    <circle cx="85.18" cy="9.72" r="0.79" fill="#86171a"/>
    <circle cx="85.18" cy="11.95" r="0.79" fill="#86171a"/>
    <circle cx="87.81" cy="11.95" r="0.79" fill="#86171a"/>
    <circle cx="87.81" cy="15.26" r="0.79" fill="#86171a"/>
    <circle cx="84.52" cy="16.6" r="0.79" fill="#86171a"/>
    <circle cx="81.96" cy="15.26" r="0.79" fill="#86171a"/>
    <circle cx="82.75" cy="4.38" r="0.79" fill="#86171a"/>
    <circle cx="90.97" cy="4.38" r="0.79" fill="#86171a"/>
    <circle cx="90.97" cy="1.53" r="0.79" fill="#86171a"/>
    <circle cx="82.75" cy="0.94" r="0.79" fill="#86171a"/>
    <circle cx="78.27" cy="4.95" r="0.79" fill="#86171a"/>
    <circle cx="77.73" cy="14.79" r="0.79" fill="#86171a"/>
    <circle cx="81.96" cy="19.69" r="0.79" fill="#86171a"/>
    <circle cx="87.81" cy="18.57" r="0.79" fill="#86171a"/>
    <circle cx="91.27" cy="19.69" r="0.79" fill="#86171a"/>
    <circle cx="91.27" cy="9.09" r="0.79" fill="#86171a"/>
    <circle cx="81.33" cy="10.38" r="0.79" fill="#86171a"/>
    <line x1="85.13" y1="9.65" x2="91.32" y2="9.09" fill="none" stroke="#86171a" stroke-miterlimit="10" stroke-width="0.5"/>
    <line x1="91.32" y1="19.69" x2="87.74" y2="11.93" fill="none" stroke="#86171a" stroke-miterlimit="10" stroke-width="0.5"/>
    <line x1="91.32" y1="9.09" x2="87.74" y2="15.29" fill="none" stroke="#86171a" stroke-miterlimit="10" stroke-width="0.5"/>
    <line x1="85.13" y1="11.93" x2="91.46" y2="9.09" fill="none" stroke="#86171a" stroke-miterlimit="10" stroke-width="0.5"/>
    <line x1="85.13" y1="9.65" x2="87.74" y2="11.93" fill="none" stroke="#86171a" stroke-miterlimit="10" stroke-width="0.5"/>
    <line x1="85.13" y1="11.93" x2="85.13" y2="9.65" fill="none" stroke="#86171a" stroke-miterlimit="10" stroke-width="0.5"/>
    <line x1="91.32" y1="19.69" x2="91.32" y2="9.09" fill="none" stroke="#86171a" stroke-miterlimit="10" stroke-width="0.5"/>
    <line x1="87.74" y1="15.29" x2="91.32" y2="19.69" fill="none" stroke="#86171a" stroke-miterlimit="10" stroke-width="0.5"/>
    <line x1="87.79" y1="18.44" x2="87.74" y2="15.29" fill="none" stroke="#86171a" stroke-miterlimit="10" stroke-width="0.5"/>
    <line x1="87.81" y1="12.09" x2="87.74" y2="15.29" fill="none" stroke="#86171a" stroke-miterlimit="10" stroke-width="0.5"/>
    <line x1="81.96" y1="19.82" x2="87.79" y2="18.44" fill="none" stroke="#86171a" stroke-miterlimit="10" stroke-width="0.5"/>
    <line x1="84.52" y1="16.6" x2="87.79" y2="18.44" fill="none" stroke="#86171a" stroke-miterlimit="10" stroke-width="0.5"/>
    <line x1="87.74" y1="15.29" x2="84.52" y2="16.6" fill="none" stroke="#86171a" stroke-miterlimit="10" stroke-width="0.5"/>
    <line x1="81.93" y1="15.21" x2="84.52" y2="16.6" fill="none" stroke="#86171a" stroke-miterlimit="10" stroke-width="0.5"/>
    <line x1="81.96" y1="19.69" x2="81.93" y2="15.21" fill="none" stroke="#86171a" stroke-miterlimit="10" stroke-width="0.5"/>
    <line x1="77.73" y1="14.79" x2="81.96" y2="19.69" fill="none" stroke="#86171a" stroke-miterlimit="10" stroke-width="0.5"/>
    <line x1="81.31" y1="10.32" x2="77.82" y2="14.93" fill="none" stroke="#86171a" stroke-miterlimit="10" stroke-width="0.5"/>
    <line x1="78.14" y1="4.95" x2="82.92" y2="4.33" fill="none" stroke="#86171a" stroke-miterlimit="10" stroke-width="0.5"/>
    <line x1="82.75" y1="0.94" x2="82.92" y2="4.33" fill="none" stroke="#86171a" stroke-miterlimit="10" stroke-width="0.5"/>
    <line x1="78.14" y1="4.95" x2="82.75" y2="0.94" fill="none" stroke="#86171a" stroke-miterlimit="10" stroke-width="0.5"/>
    <line x1="90.97" y1="1.4" x2="91.04" y2="4.35" fill="none" stroke="#86171a" stroke-miterlimit="10" stroke-width="0.5"/>
    <line x1="82.75" y1="0.94" x2="90.97" y2="1.4" fill="none" stroke="#86171a" stroke-miterlimit="10" stroke-width="0.5"/>
    <line x1="91.04" y1="4.35" x2="82.84" y2="4.35" fill="none" stroke="#86171a" stroke-miterlimit="10" stroke-width="0.5"/>
    <line x1="78.14" y1="4.95" x2="77.48" y2="14.79" fill="none" stroke="#86171a" stroke-miterlimit="10" stroke-width="0.5"/>
    <line x1="82.75" y1="4.4" x2="81.31" y2="10.32" fill="none" stroke="#86171a" stroke-miterlimit="10" stroke-width="0.5"/>
    <line x1="81.93" y1="15.21" x2="81.31" y2="10.32" fill="none" stroke="#86171a" stroke-miterlimit="10" stroke-width="0.5"/>
    <line x1="78.28" y1="4.95" x2="81.33" y2="10.47" fill="none" stroke="#86171a" stroke-miterlimit="10" stroke-width="0.5"/>
    <line x1="82.75" y1="4.4" x2="77.73" y2="14.79" fill="none" stroke="#86171a" stroke-miterlimit="10" stroke-width="0.5"/>
    <line x1="81.33" y1="10.47" x2="81.96" y2="19.82" fill="none" stroke="#86171a" stroke-miterlimit="10" stroke-width="0.5"/>
    <line x1="77.73" y1="14.79" x2="81.93" y2="15.21" fill="none" stroke="#86171a" stroke-miterlimit="10" stroke-width="0.5"/>
    <line x1="84.27" y1="16.6" x2="81.96" y2="19.69" fill="none" stroke="#86171a" stroke-miterlimit="10" stroke-width="0.5"/>
    <line x1="82.6" y1="1.07" x2="91.04" y2="4.35" fill="none" stroke="#86171a" stroke-miterlimit="10" stroke-width="0.5"/>
    <line x1="90.97" y1="1.4" x2="82.75" y2="4.35" fill="none" stroke="#86171a" stroke-miterlimit="10" stroke-width="0.5"/>
</g>
<g id="U">
    <circle cx="93.94" cy="0.94" r="0.79" fill="#86171a"/>
    <circle cx="97.82" cy="19.69" r="0.79" fill="#86171a"/>
    <circle cx="97.47" cy="0.94" r="0.79" fill="#86171a"/>
    <circle cx="97.47" cy="12.33" r="0.79" fill="#86171a"/>
    <circle cx="93.94" cy="13.78" r="0.79" fill="#86171a"/>
    <circle cx="98.61" cy="15.91" r="0.79" fill="#86171a"/>
    <circle cx="102.92" cy="16.24" r="0.79" fill="#86171a"/>
    <circle cx="104.67" cy="11.95" r="0.79" fill="#86171a"/>
    <circle cx="104.67" cy="0.94" r="0.79" fill="#86171a"/>
    <circle cx="108.25" cy="0.94" r="0.79" fill="#86171a"/>
    <circle cx="108.25" cy="13.41" r="0.79" fill="#86171a"/>
    <circle cx="104.1" cy="19.69" r="0.79" fill="#86171a"/>
    <line x1="93.94" y1="0.94" x2="93.94" y2="13.78" fill="none" stroke="#86171a" stroke-miterlimit="10" stroke-width="0.5"/>
    <line x1="97.52" y1="0.94" x2="97.47" y2="12.33" fill="none" stroke="#86171a" stroke-miterlimit="10" stroke-width="0.5"/>
    <line x1="93.94" y1="0.94" x2="97.52" y2="0.94" fill="none" stroke="#86171a" stroke-miterlimit="10" stroke-width="0.5"/>
    <line x1="93.94" y1="13.78" x2="97.82" y2="19.69" fill="none" stroke="#86171a" stroke-miterlimit="10" stroke-width="0.5"/>
    <line x1="97.47" y1="12.33" x2="98.61" y2="15.91" fill="none" stroke="#86171a" stroke-miterlimit="10" stroke-width="0.5"/>
    <line x1="102.92" y1="16.24" x2="98.61" y2="15.91" fill="none" stroke="#86171a" stroke-miterlimit="10" stroke-width="0.5"/>
    <line x1="104.67" y1="11.95" x2="102.92" y2="16.24" fill="none" stroke="#86171a" stroke-miterlimit="10" stroke-width="0.5"/>
    <line x1="104.64" y1="0.94" x2="108.25" y2="0.94" fill="none" stroke="#86171a" stroke-miterlimit="10" stroke-width="0.5"/>
    <line x1="108.25" y1="13.41" x2="108.25" y2="0.94" fill="none" stroke="#86171a" stroke-miterlimit="10" stroke-width="0.5"/>
    <line x1="104.61" y1="11.8" x2="104.64" y2="0.94" fill="none" stroke="#86171a" stroke-miterlimit="10" stroke-width="0.5"/>
    <line x1="104.1" y1="19.69" x2="108.25" y2="13.41" fill="none" stroke="#86171a" stroke-miterlimit="10" stroke-width="0.5"/>
    <line x1="97.82" y1="19.69" x2="104.1" y2="19.69" fill="none" stroke="#86171a" stroke-miterlimit="10" stroke-width="0.5"/>
    <line x1="93.94" y1="0.94" x2="97.47" y2="12.33" fill="none" stroke="#86171a" stroke-miterlimit="10" stroke-width="0.5"/>
    <line x1="97.52" y1="0.94" x2="93.94" y2="13.78" fill="none" stroke="#86171a" stroke-miterlimit="10" stroke-width="0.5"/>
    <line x1="97.47" y1="12.33" x2="93.94" y2="13.78" fill="none" stroke="#86171a" stroke-miterlimit="10" stroke-width="0.5"/>
    <line x1="98.58" y1="15.81" x2="97.82" y2="19.85" fill="none" stroke="#86171a" stroke-miterlimit="10" stroke-width="0.5"/>
    <line x1="93.94" y1="13.78" x2="98.58" y2="15.81" fill="none" stroke="#86171a" stroke-miterlimit="10" stroke-width="0.5"/>
    <line x1="97.47" y1="12.33" x2="97.85" y2="19.69" fill="none" stroke="#86171a" stroke-miterlimit="10" stroke-width="0.5"/>
    <line x1="102.92" y1="16.24" x2="104.1" y2="19.85" fill="none" stroke="#86171a" stroke-miterlimit="10" stroke-width="0.5"/>
    <line x1="97.73" y1="19.56" x2="103.13" y2="16.13" fill="none" stroke="#86171a" stroke-miterlimit="10" stroke-width="0.5"/>
    <line x1="98.66" y1="15.95" x2="104.1" y2="19.85" fill="none" stroke="#86171a" stroke-miterlimit="10" stroke-width="0.5"/>
    <line x1="104.67" y1="11.95" x2="108.25" y2="13.41" fill="none" stroke="#86171a" stroke-miterlimit="10" stroke-width="0.5"/>
    <line x1="102.92" y1="16.21" x2="108.42" y2="13.41" fill="none" stroke="#86171a" stroke-miterlimit="10" stroke-width="0.5"/>
    <line x1="104.67" y1="11.95" x2="104.1" y2="19.85" fill="none" stroke="#86171a" stroke-miterlimit="10" stroke-width="0.5"/>
    <line x1="104.64" y1="0.94" x2="108.17" y2="13.54" fill="none" stroke="#86171a" stroke-miterlimit="10" stroke-width="0.5"/>
    <line x1="108.25" y1="0.94" x2="104.67" y2="11.95" fill="none" stroke="#86171a" stroke-miterlimit="10" stroke-width="0.5"/>
</g>
<g id="T">
    <circle cx="118.9" cy="4.32" r="0.79" fill="#86171a"/>
    <circle cx="115.21" cy="4.32" r="0.79" fill="#86171a"/>
    <circle cx="110.17" cy="4.23" r="0.79" fill="#86171a"/>
    <circle cx="110.17" cy="1.1" r="0.79" fill="#86171a"/>
    <circle cx="124.03" cy="1.1" r="0.79" fill="#86171a"/>
    <circle cx="124.03" cy="4.32" r="0.79" fill="#86171a"/>
    <circle cx="118.9" cy="19.69" r="0.79" fill="#86171a"/>
    <circle cx="115.35" cy="19.69" r="0.79" fill="#86171a"/>
    <line x1="110.17" y1="1.1" x2="118.83" y2="4.25" fill="none" stroke="#86171a" stroke-miterlimit="10" stroke-width="0.5"/>
    <line x1="110.17" y1="4.07" x2="124.03" y2="1.1" fill="none" stroke="#86171a" stroke-miterlimit="10" stroke-width="0.5"/>
    <line x1="110.17" y1="1.1" x2="124.21" y2="4.32" fill="none" stroke="#86171a" stroke-miterlimit="10" stroke-width="0.5"/>
    <line x1="115.25" y1="4.25" x2="124.03" y2="0.94" fill="none" stroke="#86171a" stroke-miterlimit="10" stroke-width="0.5"/>
    <line x1="110.17" y1="4.25" x2="115.25" y2="4.25" fill="none" stroke="#86171a" stroke-miterlimit="10" stroke-width="0.5"/>
    <line x1="110.17" y1="1.1" x2="124.03" y2="1.1" fill="none" stroke="#86171a" stroke-miterlimit="10" stroke-width="0.5"/>
    <line x1="124.03" y1="4.25" x2="124.12" y2="1.1" fill="none" stroke="#86171a" stroke-miterlimit="10" stroke-width="0.5"/>
    <line x1="118.83" y1="4.25" x2="124.03" y2="4.25" fill="none" stroke="#86171a" stroke-miterlimit="10" stroke-width="0.5"/>
    <line x1="110.17" y1="1.1" x2="110.17" y2="4.25" fill="none" stroke="#86171a" stroke-miterlimit="10" stroke-width="0.5"/>
    <line x1="115.25" y1="19.69" x2="118.83" y2="4.25" fill="none" stroke="#86171a" stroke-miterlimit="10" stroke-width="0.5"/>
    <line x1="115.25" y1="4.25" x2="118.83" y2="19.69" fill="none" stroke="#86171a" stroke-miterlimit="10" stroke-width="0.5"/>
    <line x1="115.25" y1="19.69" x2="118.83" y2="19.69" fill="none" stroke="#86171a" stroke-miterlimit="10" stroke-width="0.5"/>
    <line x1="118.83" y1="4.25" x2="118.83" y2="19.69" fill="none" stroke="#86171a" stroke-miterlimit="10" stroke-width="0.5"/>
    <line x1="115.25" y1="4.25" x2="115.25" y2="19.69" fill="none" stroke="#86171a" stroke-miterlimit="10" stroke-width="0.5"/>
</g>
<g id="O">
    <circle cx="129.87" cy="15.57" r="0.79" fill="#86171a"/>
    <circle cx="128.69" cy="19.19" r="0.79" fill="#86171a"/>
    <circle cx="133.06" cy="16.57" r="0.79" fill="#86171a"/>
    <circle cx="133.44" cy="19.8" r="0.79" fill="#86171a"/>
    <circle cx="135.97" cy="15.57" r="0.79" fill="#86171a"/>
    <circle cx="138.66" cy="17.94" r="0.79" fill="#86171a"/>
    <circle cx="136.76" cy="9.94" r="0.79" fill="#86171a"/>
    <circle cx="140.4" cy="8.97" r="0.79" fill="#86171a"/>
    <circle cx="138.21" cy="2.22" r="0.79" fill="#86171a"/>
    <circle cx="127.61" cy="2.22" r="0.79" fill="#86171a"/>
    <circle cx="135.48" cy="4.76" r="0.79" fill="#86171a"/>
    <circle cx="132.47" cy="4.32" r="0.79" fill="#86171a"/>
    <circle cx="129.64" cy="5.27" r="0.79" fill="#86171a"/>
    <circle cx="132.27" cy="0.82" r="0.79" fill="#86171a"/>
    <circle cx="128.85" cy="10.42" r="0.79" fill="#86171a"/>
    <circle cx="125.72" cy="14.99" r="0.79" fill="#86171a"/>
    <circle cx="139.97" cy="14.99" r="0.79" fill="#86171a"/>
    <circle cx="125.34" cy="8.18" r="0.79" fill="#86171a"/>
    <line x1="133.06" y1="16.57" x2="135.97" y2="15.57" fill="none" stroke="#86171a" stroke-miterlimit="10" stroke-width="0.5"/>
    <line x1="129.87" y1="15.57" x2="133.44" y2="19.8" fill="none" stroke="#86171a" stroke-miterlimit="10" stroke-width="0.5"/>
    <line x1="133.06" y1="16.57" x2="128.69" y2="19.19" fill="none" stroke="#86171a" stroke-miterlimit="10" stroke-width="0.5"/>
    <line x1="129.87" y1="15.57" x2="133.06" y2="16.57" fill="none" stroke="#86171a" stroke-miterlimit="10" stroke-width="0.5"/>
    <line x1="125.73" y1="15.06" x2="129.87" y2="15.57" fill="none" stroke="#86171a" stroke-miterlimit="10" stroke-width="0.5"/>
    <line x1="128.69" y1="19.19" x2="125.73" y2="15.06" fill="none" stroke="#86171a" stroke-miterlimit="10" stroke-width="0.5"/>
    <line x1="133.44" y1="19.8" x2="135.97" y2="15.57" fill="none" stroke="#86171a" stroke-miterlimit="10" stroke-width="0.5"/>
    <line x1="133.06" y1="16.57" x2="138.66" y2="17.94" fill="none" stroke="#86171a" stroke-miterlimit="10" stroke-width="0.5"/>
    <line x1="139.97" y1="14.99" x2="135.97" y2="15.57" fill="none" stroke="#86171a" stroke-miterlimit="10" stroke-width="0.5"/>
    <line x1="136.76" y1="9.94" x2="138.66" y2="17.94" fill="none" stroke="#86171a" stroke-miterlimit="10" stroke-width="0.5"/>
    <line x1="135.97" y1="15.57" x2="140.4" y2="8.97" fill="none" stroke="#86171a" stroke-miterlimit="10" stroke-width="0.5"/>
    <line x1="139.97" y1="14.99" x2="136.76" y2="9.94" fill="none" stroke="#86171a" stroke-miterlimit="10" stroke-width="0.5"/>
    <line x1="140.4" y1="8.97" x2="139.97" y2="14.99" fill="none" stroke="#86171a" stroke-miterlimit="10" stroke-width="0.5"/>
    <line x1="136.76" y1="9.94" x2="135.97" y2="15.57" fill="none" stroke="#86171a" stroke-miterlimit="10" stroke-width="0.5"/>
    <line x1="140.4" y1="8.97" x2="136.76" y2="9.94" fill="none" stroke="#86171a" stroke-miterlimit="10" stroke-width="0.5"/>
    <line x1="135.48" y1="4.76" x2="140.4" y2="8.97" fill="none" stroke="#86171a" stroke-miterlimit="10" stroke-width="0.5"/>
    <line x1="138.21" y1="2.22" x2="136.83" y2="10.06" fill="none" stroke="#86171a" stroke-miterlimit="10" stroke-width="0.5"/>
    <line x1="135.48" y1="4.76" x2="136.83" y2="10.06" fill="none" stroke="#86171a" stroke-miterlimit="10" stroke-width="0.5"/>
    <line x1="138.21" y1="2.08" x2="140.4" y2="8.97" fill="none" stroke="#86171a" stroke-miterlimit="10" stroke-width="0.5"/>
    <line x1="135.48" y1="4.76" x2="138.21" y2="2.08" fill="none" stroke="#86171a" stroke-miterlimit="10" stroke-width="0.5"/>
    <line x1="132.47" y1="4.32" x2="135.48" y2="4.76" fill="none" stroke="#86171a" stroke-miterlimit="10" stroke-width="0.5"/>
    <line x1="132.32" y1="0.82" x2="138.21" y2="2.08" fill="none" stroke="#86171a" stroke-miterlimit="10" stroke-width="0.5"/>
    <line x1="129.64" y1="5.27" x2="132.32" y2="0.82" fill="none" stroke="#86171a" stroke-miterlimit="10" stroke-width="0.5"/>
    <line x1="127.61" y1="2.22" x2="132.47" y2="4.32" fill="none" stroke="#86171a" stroke-miterlimit="10" stroke-width="0.5"/>
    <line x1="132.32" y1="0.82" x2="127.61" y2="2.22" fill="none" stroke="#86171a" stroke-miterlimit="10" stroke-width="0.5"/>
    <line x1="132.47" y1="4.32" x2="138.21" y2="2.08" fill="none" stroke="#86171a" stroke-miterlimit="10" stroke-width="0.5"/>
    <line x1="135.48" y1="4.76" x2="132.32" y2="0.82" fill="none" stroke="#86171a" stroke-miterlimit="10" stroke-width="0.5"/>
    <line x1="128.69" y1="19.19" x2="133.44" y2="19.8" fill="none" stroke="#86171a" stroke-miterlimit="10" stroke-width="0.5"/>
    <line x1="138.66" y1="17.94" x2="133.44" y2="19.8" fill="none" stroke="#86171a" stroke-miterlimit="10" stroke-width="0.5"/>
    <line x1="140.18" y1="14.99" x2="138.66" y2="17.94" fill="none" stroke="#86171a" stroke-miterlimit="10" stroke-width="0.5"/>
    <line x1="128.85" y1="10.42" x2="129.87" y2="15.57" fill="none" stroke="#86171a" stroke-miterlimit="10" stroke-width="0.5"/>
    <line x1="129.64" y1="5.27" x2="125.34" y2="8.18" fill="none" stroke="#86171a" stroke-miterlimit="10" stroke-width="0.5"/>
    <line x1="132.47" y1="4.32" x2="128.92" y2="10.6" fill="none" stroke="#86171a" stroke-miterlimit="10" stroke-width="0.5"/>
    <line x1="125.34" y1="8.18" x2="125.73" y2="15.06" fill="none" stroke="#86171a" stroke-miterlimit="10" stroke-width="0.5"/>
    <line x1="129.64" y1="5.27" x2="132.47" y2="4.32" fill="none" stroke="#86171a" stroke-miterlimit="10" stroke-width="0.5"/>
    <line x1="128.85" y1="10.42" x2="129.64" y2="5.27" fill="none" stroke="#86171a" stroke-miterlimit="10" stroke-width="0.5"/>
    <line x1="125.34" y1="8.18" x2="127.61" y2="2.22" fill="none" stroke="#86171a" stroke-miterlimit="10" stroke-width="0.5"/>
    <line x1="128.85" y1="10.42" x2="125.34" y2="8.18" fill="none" stroke="#86171a" stroke-miterlimit="10" stroke-width="0.5"/>
    <line x1="125.72" y1="14.88" x2="128.85" y2="10.42" fill="none" stroke="#86171a" stroke-miterlimit="10" stroke-width="0.5"/>
    <line x1="125.54" y1="8.31" x2="129.87" y2="15.57" fill="none" stroke="#86171a" stroke-miterlimit="10" stroke-width="0.5"/>
</g>
<g id="W">
    <circle cx="141.19" cy="1.1" r="0.79" fill="#86171a"/>
    <circle cx="144.55" cy="1.04" r="0.79" fill="#86171a"/>
    <circle cx="148.94" cy="14.52" r="0.79" fill="#86171a"/>
    <circle cx="152.4" cy="0.94" r="0.79" fill="#86171a"/>
    <circle cx="155.93" cy="1.04" r="0.79" fill="#86171a"/>
    <circle cx="154.85" cy="5.67" r="0.79" fill="#86171a"/>
    <circle cx="161.28" cy="1.04" r="0.79" fill="#86171a"/>
    <circle cx="165.03" cy="1.1" r="0.79" fill="#86171a"/>
    <circle cx="159.7" cy="19.8" r="0.79" fill="#86171a"/>
    <circle cx="155.64" cy="19.8" r="0.79" fill="#86171a"/>
    <circle cx="153.19" cy="12.65" r="0.79" fill="#86171a"/>
    <circle cx="150.82" cy="19.66" r="0.79" fill="#86171a"/>
    <circle cx="146.94" cy="19.69" r="0.79" fill="#86171a"/>
    <circle cx="157.86" cy="14.52" r="0.79" fill="#86171a"/>
    <line x1="141.19" y1="1.1" x2="144.55" y2="1.04" fill="none" stroke="#86171a" stroke-miterlimit="10" stroke-width="0.5"/>
    <line x1="148.94" y1="14.52" x2="152.31" y2="0.94" fill="none" stroke="#86171a" stroke-miterlimit="10" stroke-width="0.5"/>
    <line x1="154.84" y1="5.78" x2="152.31" y2="0.94" fill="none" stroke="#86171a" stroke-miterlimit="10" stroke-width="0.5"/>
    <line x1="155.93" y1="1.04" x2="152.31" y2="0.94" fill="none" stroke="#86171a" stroke-miterlimit="10" stroke-width="0.5"/>
    <line x1="154.84" y1="5.78" x2="155.93" y2="1.04" fill="none" stroke="#86171a" stroke-miterlimit="10" stroke-width="0.5"/>
    <line x1="153.19" y1="12.65" x2="154.84" y2="5.78" fill="none" stroke="#86171a" stroke-miterlimit="10" stroke-width="0.5"/>
    <line x1="152.31" y1="0.94" x2="153.19" y2="12.65" fill="none" stroke="#86171a" stroke-miterlimit="10" stroke-width="0.5"/>
    <line x1="148.94" y1="14.52" x2="154.85" y2="5.55" fill="none" stroke="#86171a" stroke-miterlimit="10" stroke-width="0.5"/>
    <line x1="146.85" y1="19.69" x2="151" y2="19.69" fill="none" stroke="#86171a" stroke-miterlimit="10" stroke-width="0.5"/>
    <line x1="153.19" y1="12.65" x2="146.85" y2="19.69" fill="none" stroke="#86171a" stroke-miterlimit="10" stroke-width="0.5"/>
    <line x1="148.94" y1="14.52" x2="150.82" y2="19.8" fill="none" stroke="#86171a" stroke-miterlimit="10" stroke-width="0.5"/>
    <line x1="153.19" y1="12.65" x2="148.94" y2="14.52" fill="none" stroke="#86171a" stroke-miterlimit="10" stroke-width="0.5"/>
    <line x1="146.85" y1="19.69" x2="148.94" y2="14.52" fill="none" stroke="#86171a" stroke-miterlimit="10" stroke-width="0.5"/>
    <line x1="153.19" y1="12.65" x2="150.82" y2="19.69" fill="none" stroke="#86171a" stroke-miterlimit="10" stroke-width="0.5"/>
    <line x1="141.19" y1="1.1" x2="146.85" y2="19.69" fill="none" stroke="#86171a" stroke-miterlimit="10" stroke-width="0.5"/>
    <line x1="144.55" y1="1.04" x2="148.94" y2="14.52" fill="none" stroke="#86171a" stroke-miterlimit="10" stroke-width="0.5"/>
    <line x1="141.19" y1="1.1" x2="148.92" y2="14.85" fill="none" stroke="#86171a" stroke-miterlimit="10" stroke-width="0.5"/>
    <line x1="144.55" y1="1.04" x2="146.94" y2="19.9" fill="none" stroke="#86171a" stroke-miterlimit="10" stroke-width="0.5"/>
    <line x1="157.86" y1="14.52" x2="153.19" y2="12.65" fill="none" stroke="#86171a" stroke-miterlimit="10" stroke-width="0.5"/>
    <line x1="154.84" y1="5.78" x2="157.86" y2="14.52" fill="none" stroke="#86171a" stroke-miterlimit="10" stroke-width="0.5"/>
    <line x1="155.74" y1="19.69" x2="157.86" y2="14.52" fill="none" stroke="#86171a" stroke-miterlimit="10" stroke-width="0.5"/>
    <line x1="153.35" y1="12.47" x2="155.74" y2="19.69" fill="none" stroke="#86171a" stroke-miterlimit="10" stroke-width="0.5"/>
    <line x1="159.7" y1="19.8" x2="165.03" y2="0.94" fill="none" stroke="#86171a" stroke-miterlimit="10" stroke-width="0.5"/>
    <line x1="157.86" y1="14.52" x2="165.03" y2="0.94" fill="none" stroke="#86171a" stroke-miterlimit="10" stroke-width="0.5"/>
    <line x1="161.24" y1="0.94" x2="165.03" y2="0.94" fill="none" stroke="#86171a" stroke-miterlimit="10" stroke-width="0.5"/>
    <line x1="159.7" y1="19.8" x2="161.24" y2="0.94" fill="none" stroke="#86171a" stroke-miterlimit="10" stroke-width="0.5"/>
    <line x1="155.74" y1="19.69" x2="159.7" y2="19.8" fill="none" stroke="#86171a" stroke-miterlimit="10" stroke-width="0.5"/>
    <line x1="157.86" y1="14.52" x2="159.7" y2="19.8" fill="none" stroke="#86171a" stroke-miterlimit="10" stroke-width="0.5"/>
    <line x1="161.24" y1="0.94" x2="157.86" y2="14.52" fill="none" stroke="#86171a" stroke-miterlimit="10" stroke-width="0.5"/>
    <line x1="154.85" y1="5.74" x2="155.64" y2="19.8" fill="none" stroke="#86171a" stroke-miterlimit="10" stroke-width="0.5"/>
</g>
<g id="S">
    <circle cx="167.31" cy="16.37" r="0.79" fill="#86171a"/>
    <circle cx="174.46" cy="16.65" r="0.79" fill="#86171a"/>
    <circle cx="175.81" cy="14.46" r="0.79" fill="#86171a"/>
    <circle cx="173.67" cy="12.28" r="0.79" fill="#86171a"/>
    <circle cx="177.39" cy="9.22" r="0.79" fill="#86171a"/>
    <circle cx="179.5" cy="13.44" r="0.79" fill="#86171a"/>
    <circle cx="177.92" cy="19.01" r="0.79" fill="#86171a"/>
    <circle cx="167.14" cy="19.11" r="0.79" fill="#86171a"/>
    <circle cx="173.01" cy="19.9" r="0.79" fill="#86171a"/>
    <circle cx="167.31" cy="10.47" r="0.79" fill="#86171a"/>
    <circle cx="166.76" cy="3.47" r="0.79" fill="#86171a"/>
    <circle cx="178.71" cy="1.58" r="0.79" fill="#86171a"/>
    <circle cx="178.71" cy="4.45" r="0.79" fill="#86171a"/>
    <circle cx="170.44" cy="7.98" r="0.79" fill="#86171a"/>
    <circle cx="171.23" cy="4.26" r="0.79" fill="#86171a"/>
    <circle cx="171.06" cy="0.79" r="0.79" fill="#86171a"/>
    <line x1="167.08" y1="19.13" x2="174.45" y2="16.54" fill="none" stroke="#86171a" stroke-miterlimit="10" stroke-width="0.5"/>
    <line x1="167.31" y1="16.37" x2="173.01" y2="19.9" fill="none" stroke="#86171a" stroke-miterlimit="10" stroke-width="0.5"/>
    <line x1="174.45" y1="16.54" x2="177.92" y2="19.01" fill="none" stroke="#86171a" stroke-miterlimit="10" stroke-width="0.5"/>
    <line x1="179.5" y1="13.6" x2="174.45" y2="16.54" fill="none" stroke="#86171a" stroke-miterlimit="10" stroke-width="0.5"/>
    <line x1="175.81" y1="14.46" x2="177.92" y2="19.01" fill="none" stroke="#86171a" stroke-miterlimit="10" stroke-width="0.5"/>
    <line x1="167.27" y1="16.37" x2="174.45" y2="16.54" fill="none" stroke="#86171a" stroke-miterlimit="10" stroke-width="0.5"/>
    <line x1="167.22" y1="19.18" x2="167.31" y2="16.37" fill="none" stroke="#86171a" stroke-miterlimit="10" stroke-width="0.5"/>
    <line x1="167.08" y1="19.13" x2="173.01" y2="19.9" fill="none" stroke="#86171a" stroke-miterlimit="10" stroke-width="0.5"/>
    <line x1="177.92" y1="19.01" x2="173.01" y2="19.9" fill="none" stroke="#86171a" stroke-miterlimit="10" stroke-width="0.5"/>
    <line x1="179.5" y1="13.44" x2="177.92" y2="19.01" fill="none" stroke="#86171a" stroke-miterlimit="10" stroke-width="0.5"/>
    <line x1="175.81" y1="14.46" x2="179.5" y2="13.44" fill="none" stroke="#86171a" stroke-miterlimit="10" stroke-width="0.5"/>
    <line x1="174.61" y1="16.65" x2="175.81" y2="14.46" fill="none" stroke="#86171a" stroke-miterlimit="10" stroke-width="0.5"/>
    <line x1="177.39" y1="9.22" x2="179.5" y2="13.44" fill="none" stroke="#86171a" stroke-miterlimit="10" stroke-width="0.5"/>
    <line x1="173.67" y1="12.28" x2="175.81" y2="14.46" fill="none" stroke="#86171a" stroke-miterlimit="10" stroke-width="0.5"/>
    <line x1="177.39" y1="9.22" x2="173.67" y2="12.28" fill="none" stroke="#86171a" stroke-miterlimit="10" stroke-width="0.5"/>
    <line x1="175.81" y1="14.46" x2="177.39" y2="9.22" fill="none" stroke="#86171a" stroke-miterlimit="10" stroke-width="0.5"/>
    <line x1="173.58" y1="12.28" x2="179.5" y2="13.44" fill="none" stroke="#86171a" stroke-miterlimit="10" stroke-width="0.5"/>
    <line x1="173.01" y1="19.9" x2="174.46" y2="16.65" fill="none" stroke="#86171a" stroke-miterlimit="10" stroke-width="0.5"/>
    <line x1="167.31" y1="10.47" x2="177.39" y2="9.22" fill="none" stroke="#86171a" stroke-miterlimit="10" stroke-width="0.5"/>
    <line x1="170.44" y1="7.98" x2="173.58" y2="12.28" fill="none" stroke="#86171a" stroke-miterlimit="10" stroke-width="0.5"/>
    <line x1="167.31" y1="10.47" x2="173.67" y2="12.27" fill="none" stroke="#86171a" stroke-miterlimit="10" stroke-width="0.5"/>
    <line x1="170.44" y1="7.98" x2="177.39" y2="9.22" fill="none" stroke="#86171a" stroke-miterlimit="10" stroke-width="0.5"/>
    <line x1="166.76" y1="3.47" x2="171.23" y2="4.26" fill="none" stroke="#86171a" stroke-miterlimit="10" stroke-width="0.5"/>
    <line x1="167.31" y1="10.47" x2="171.23" y2="4.26" fill="none" stroke="#86171a" stroke-miterlimit="10" stroke-width="0.5"/>
    <line x1="170.44" y1="7.98" x2="167.31" y2="10.58" fill="none" stroke="#86171a" stroke-miterlimit="10" stroke-width="0.5"/>
    <line x1="171.23" y1="4.26" x2="170.44" y2="7.98" fill="none" stroke="#86171a" stroke-miterlimit="10" stroke-width="0.5"/>
    <line x1="166.76" y1="3.47" x2="167.31" y2="10.47" fill="none" stroke="#86171a" stroke-miterlimit="10" stroke-width="0.5"/>
    <line x1="170.44" y1="7.98" x2="166.76" y2="3.47" fill="none" stroke="#86171a" stroke-miterlimit="10" stroke-width="0.5"/>
    <line x1="171.06" y1="0.79" x2="171.23" y2="4.26" fill="none" stroke="#86171a" stroke-miterlimit="10" stroke-width="0.5"/>
    <line x1="166.76" y1="3.47" x2="171.06" y2="0.79" fill="none" stroke="#86171a" stroke-miterlimit="10" stroke-width="0.5"/>
    <line x1="178.71" y1="1.58" x2="171.23" y2="4.26" fill="none" stroke="#86171a" stroke-miterlimit="10" stroke-width="0.5"/>
    <line x1="171.02" y1="0.81" x2="178.64" y2="4.5" fill="none" stroke="#86171a" stroke-miterlimit="10" stroke-width="0.5"/>
    <line x1="178.71" y1="1.58" x2="178.71" y2="4.45" fill="none" stroke="#86171a" stroke-miterlimit="10" stroke-width="0.5"/>
    <line x1="171.23" y1="4.26" x2="178.71" y2="4.34" fill="none" stroke="#86171a" stroke-miterlimit="10" stroke-width="0.5"/>
    <line x1="171.14" y1="0.79" x2="178.71" y2="1.58" fill="none" stroke="#86171a" stroke-miterlimit="10" stroke-width="0.5"/>
</g>
<g id="I-2" data-name="I">
    <circle cx="197.98" cy="0.94" r="0.79" fill="#86171a"/>
    <circle cx="201.57" cy="0.94" r="0.79" fill="#86171a"/>
    <circle cx="201.57" cy="19.69" r="0.79" fill="#86171a"/>
    <circle cx="197.98" cy="19.69" r="0.79" fill="#86171a"/>
    <line x1="197.98" y1="0.94" x2="201.57" y2="0.94" fill="none" stroke="#86171a" stroke-miterlimit="10" stroke-width="0.5"/>
    <line x1="197.98" y1="19.69" x2="197.98" y2="0.94" fill="none" stroke="#86171a" stroke-miterlimit="10" stroke-width="0.5"/>
    <line x1="201.57" y1="19.69" x2="201.57" y2="0.94" fill="none" stroke="#86171a" stroke-miterlimit="10" stroke-width="0.5"/>
    <line x1="197.98" y1="19.69" x2="201.57" y2="19.69" fill="none" stroke="#86171a" stroke-miterlimit="10" stroke-width="0.5"/>
    <line x1="197.98" y1="0.94" x2="201.57" y2="19.69" fill="none" stroke="#86171a" stroke-miterlimit="10" stroke-width="0.5"/>
    <line x1="201.57" y1="0.77" x2="197.98" y2="19.69" fill="none" stroke="#86171a" stroke-miterlimit="10" stroke-width="0.5"/>
</g>
</svg>
