<svg xmlns="http://www.w3.org/2000/svg" xmlns:xlink="http://www.w3.org/1999/xlink" version="1.0" id="Layer_1" x="0px" y="0px" viewBox="0 0 100 100" enable-background="new 0 0 100 100" xml:space="preserve" height="50px" width="50px">
<path fill="#64696a" d="M78.3,59.1H21.7c-0.9,0-1.6-0.7-1.6-1.6s0.7-1.6,1.6-1.6h56.5c0.9,0,1.6,0.7,1.6,1.6S79.2,59.1,78.3,59.1z"/>
<path fill="#64696a" d="M70.1,64c-0.9,0-1.6-0.7-1.6-1.6v-4.9c0-0.9,0.7-1.6,1.6-1.6s1.6,0.7,1.6,1.6v4.9C71.7,63.2,71,64,70.1,64z"/>
<path fill="#64696a" d="M29.9,64c-0.9,0-1.6-0.7-1.6-1.6v-4.9c0-0.9,0.7-1.6,1.6-1.6s1.6,0.7,1.6,1.6v4.9C31.5,63.2,30.8,64,29.9,64z"/>
<path fill="#64696a" d="M46.7,59h-6.5c-0.9,0-1.6-0.7-1.6-1.6V37.6c0-0.9,0.7-1.6,1.6-1.6h5.8c0.9,0,1.6,0.7,1.6,1.6v19.8  C48.3,58.3,47.6,59,46.7,59z M41.8,55.8h3.3V39.3h-3.3V55.8z"/>
<path fill="#64696a" d="M66.9,59h-6.5c-0.9,0-1.6-0.7-1.6-1.6V37.6c0-0.9,0.7-1.6,1.6-1.6h6.5c0.9,0,1.6,0.7,1.6,1.6v19.8  C68.5,58.3,67.8,59,66.9,59z M61.9,55.8h3.3V39.3h-3.3V55.8z"/>
<path fill="#64696a" d="M53.3,59c-0.9,0-1.6-0.7-1.6-1.6V44.2h-4.9c-0.9,0-1.6-0.7-1.6-1.6s0.7-1.6,1.6-1.6h6.5c0.9,0,1.6,0.7,1.6,1.6v14.8  C54.9,58.3,54.2,59,53.3,59z"/>
<path fill="#64696a" d="M33.5,59c-0.9,0-1.6-0.7-1.6-1.6V42.6c0-0.9,0.7-1.6,1.6-1.6H40c0.9,0,1.6,0.7,1.6,1.6s-0.7,1.6-1.6,1.6h-4.9v13.2  C35.1,58.3,34.4,59,33.5,59z"/>
</svg>