<?xml version="1.0" encoding="utf-8"?>
<!-- Generator: Adobe Illustrator 16.0.4, SVG Export Plug-In . SVG Version: 6.00 Build 0)  -->
<!DOCTYPE svg PUBLIC "-//W3C//DTD SVG 1.1//EN" "http://www.w3.org/Graphics/SVG/1.1/DTD/svg11.dtd">
<svg version="1.1" id="Capa_1" xmlns="http://www.w3.org/2000/svg" xmlns:xlink="http://www.w3.org/1999/xlink" x="0px" y="0px"
	 width="512px" height="512px" viewBox="0 0 512 512" enable-background="new 0 0 512 512" xml:space="preserve">
<path fill="#64696a" d="M466.895,305.125c-26.862-46.527-10.708-106.152,36.076-133.244l-50.312-87.146c-14.375,8.427-31.088,13.259-48.923,13.259
	c-53.769,0-97.354-43.873-97.354-97.995H205.752c0.133,16.705-4.037,33.641-12.979,49.126
	c-26.862,46.528-86.578,62.351-133.431,35.379L9.03,171.65c14.485,8.236,27.025,20.294,35.943,35.739
	c26.819,46.454,10.756,105.96-35.854,133.112l50.313,87.146c14.325-8.348,30.958-13.127,48.7-13.127
	c53.598,0,97.072,43.597,97.35,97.479h100.627c-0.043-16.537,4.136-33.285,12.982-48.609
	c26.818-46.453,86.389-62.297,133.207-35.506l50.313-87.146C488.222,332.506,475.766,320.49,466.895,305.125z M256,359.666
	c-57.254,0-103.668-46.412-103.668-103.667c0-57.254,46.413-103.667,103.668-103.667c57.254,0,103.666,46.413,103.666,103.667
	C359.665,313.254,313.254,359.666,256,359.666z"/>
</svg>
